<svg xmlns="http://www.w3.org/2000/svg" width="66" height="40" viewBox="0 0 66 40.07">
    <path d="m37.71,11.79h-9.43c-2.6,0-4.71,2.11-4.71,4.71v18.86c0,2.6,2.11,4.71,4.71,4.71h9.43c2.6,0,4.71-2.11,4.71-4.71v-18.86c0-2.6-2.11-4.71-4.71-4.71Z" style="fill: #fff;"/>
    <path d="m14.14,18.86H4.71c-2.6,0-4.71,2.11-4.71,4.71v11.79c0,2.6,2.11,4.71,4.71,4.71h9.43c2.6,0,4.71-2.11,4.71-4.71v-11.79c0-2.6-2.11-4.71-4.71-4.71Z" style="fill: #fff;"/>
    <path d="m61.29,0h-9.43c-2.6,0-4.71,2.11-4.71,4.71v30.64c0,2.6,2.11,4.71,4.71,4.71h9.43c2.6,0,4.71-2.11,4.71-4.71V4.71c0-2.6-2.11-4.71-4.71-4.71Z" style="fill: #fff;"/>
</svg>
