<svg width="123" height="174" viewBox="0 0 123 174" fill="none" xmlns="http://www.w3.org/2000/svg">
<path d="M21.7 72.95C30.15 78.22 39.92 80.84 49.88 80.81C49.93 80.81 49.99 80.81 50.04 80.81C58.16 80.81 68.6 82.52 85.71 90.09C89.18 91.63 92.47 92.27 95.54 92.27C112.21 92.27 122.62 73.19 122.62 73.19C58.81 73.19 78.39 21.26 40.67 21.26C10.44 21.27 0 0 0 0V59.47C7.55 64.14 15.22 68.92 21.7 72.95Z" fill="#9E9E9E"/>
<path d="M32.27 81.98C32.27 81.98 32.34 81.98 32.38 81.98C22.92 76.06 11.08 68.68 0 61.82V167.04C9.43 162.81 17.23 161.25 24.13 161.25C43.77 161.25 56.22 173.93 78.83 173.93C101.44 173.93 122.62 157.04 122.62 157.04C81.59 111.3 32.27 81.99 32.27 81.99V81.98Z" fill="#FF6464"/>
<path d="M64.7901 136.53C66.1901 134.93 67.5801 133.34 68.9701 131.76C67.0401 132.08 65.1001 132.44 63.1601 132.8C62.2601 130.73 61.3501 128.66 60.4501 126.58C60.1301 128.88 59.8101 131.18 59.4901 133.48C57.6001 133.83 55.7101 134.17 53.8301 134.47C55.5301 135.52 57.2301 136.54 58.9301 137.55C58.6201 139.81 58.3001 142.07 57.9901 144.33C59.4001 142.72 60.8001 141.1 62.2101 139.49C63.9501 140.52 65.6901 141.55 67.4301 142.61C66.5501 140.57 65.6701 138.55 64.7901 136.52V136.53Z" fill="white"/>
<path d="M54.94 143.78C51.75 148.73 47.7601 150.5 42.1501 149.04C33.7301 146.94 28.01 134.45 29.01 124.48C30.01 114.51 37.35 110.94 45.7701 113.04C52.1101 114.7 56.5801 118.87 58.2201 125.73C56.5301 120.94 53.3101 118.42 48.6501 117.42C41.7701 116 35.6901 119.94 34.8801 128.02C34.0601 136.14 38.8201 145.32 45.7001 146.74C49.76 147.61 52.3 147 54.94 143.78Z" fill="white"/>
<path d="M59.0701 57.65C59.9901 56.6 60.9101 55.55 61.8301 54.51C60.5501 54.72 59.2801 54.96 58.0001 55.19C57.4001 53.82 56.8101 52.46 56.2101 51.09C56.0001 52.61 55.7901 54.13 55.5801 55.64C54.3301 55.87 53.0901 56.09 51.8401 56.3C52.9601 56.99 54.0801 57.66 55.2001 58.33C54.9901 59.82 54.7901 61.31 54.5801 62.8C55.5101 61.74 56.4401 60.67 57.3601 59.61C58.5101 60.29 59.6601 60.97 60.8001 61.67C60.2201 60.33 59.6401 58.99 59.0601 57.66L59.0701 57.65Z" fill="white"/>
<path d="M52.58 62.44C50.48 65.7 47.84 66.87 44.15 65.91C38.6 64.53 34.82 56.29 35.49 49.72C36.16 43.15 40.99 40.79 46.54 42.17C50.72 43.26 53.67 46.01 54.75 50.54C53.64 47.38 51.52 45.72 48.44 45.06C43.9 44.12 39.89 46.72 39.36 52.05C38.82 57.4 41.96 63.46 46.5 64.39C49.18 64.96 50.85 64.56 52.59 62.44H52.58Z" fill="white"/>
</svg>
