<svg width="143" height="43" viewBox="0 0 143 43" fill="none" xmlns="http://www.w3.org/2000/svg">
	<path d="M44.3196 42.6949H38.712L47.7087 19.7949H53.3306L62.3128 42.6949H56.7053L55.0324 38.1917H45.9901L44.3172 42.6949H44.3196ZM47.7087 33.5049H53.3306L50.5184 25.9931L47.7062 33.5049H47.7087Z" fill="#FF6464" />
	<path d="M83.3299 42.6949H77.4195L72.8455 34.7726H69.6078V42.6949H64.2574V19.7949H73.1771C75.0808 19.7949 76.708 20.0894 78.0564 20.681C79.4048 21.2726 80.436 22.1274 81.1498 23.2453C81.8637 24.3633 82.2218 25.713 82.2218 27.2898C82.2218 28.8665 81.8757 30.1438 81.1811 31.2449C80.4864 32.3435 79.4962 33.1886 78.2103 33.7802L83.3323 42.6949H83.3299ZM69.6078 30.5736H72.7685C74.0665 30.5736 75.0519 30.3128 75.7322 29.7961C76.4124 29.2794 76.7513 28.5236 76.7513 27.5361C76.7513 26.5485 76.4124 25.7806 75.7322 25.2615C75.0519 24.7424 74.0665 24.484 72.7685 24.484H69.6078V30.576V30.5736Z" fill="#FF6464" />
	<path d="M85.4883 42.6949V19.7949H93.2543C95.9992 19.7949 98.3811 20.2657 100.398 21.2074C102.414 22.1491 103.979 23.4771 105.094 25.1915C106.21 26.9058 106.767 28.9244 106.767 31.2449C106.767 33.5653 106.21 35.5718 105.094 37.291C103.979 39.0102 102.414 40.3431 100.398 41.2823C98.3811 42.224 96.0016 42.6949 93.2543 42.6949H85.4883ZM90.8387 38.0082H93.4369C95.1194 38.0082 96.5424 37.7474 97.7081 37.221C98.8738 36.697 99.7608 35.9316 100.376 34.9223C100.989 33.9154 101.297 32.6888 101.297 31.2425C101.297 29.7961 100.989 28.5695 100.376 27.5626C99.7632 26.5557 98.8738 25.7903 97.7081 25.2639C96.5424 24.74 95.1194 24.4768 93.4369 24.4768H90.8387V38.0033V38.0082Z" fill="#FF6464" />
	<path d="M114.788 42.6949H109.438V19.7949H114.788V42.6949Z" fill="#FF6464" />
	<path d="M142.994 42.6949H137.644V27.4902L132.584 38.8484H128.558L123.513 27.5361V42.6949H118.163V19.7949H124.926L130.58 32.8337L136.218 19.7949H142.996V42.6949H142.994Z" fill="#FF6464" />
	<path d="M32.1215 12.8891V1.03104H39.8658V3.4577H34.8928V5.72742H39.5509V8.15409H34.8928V10.4624H39.9451V12.8891H32.1239H32.1215Z" fill="#9E9E9E" />
	<path d="M42.577 12.8891V1.03104H46.7472C47.7495 1.03104 48.6172 1.19764 49.3479 1.52844C50.0786 1.86166 50.6435 2.3325 51.04 2.9434C51.4366 3.55429 51.6337 4.28108 51.6337 5.12619C51.6337 5.9713 51.4366 6.70051 51.04 7.31623C50.6435 7.93195 50.0834 8.40763 49.3599 8.74325C48.6365 9.07888 47.776 9.24549 46.7785 9.24549H45.346V12.8891H42.577ZM45.346 6.81641H46.478C47.228 6.81641 47.8024 6.66912 48.2014 6.37695C48.6004 6.08479 48.7999 5.66706 48.7999 5.12378C48.7999 4.58049 48.6004 4.17967 48.2014 3.88992C47.8024 3.60017 47.228 3.45529 46.478 3.45529H45.346V6.81399V6.81641Z" fill="#9E9E9E" />
	<path d="M64.1155 12.8891H61.0533L58.6858 8.78672H57.0105V12.8891H54.2416V1.03104H58.8613C59.8467 1.03104 60.6904 1.18316 61.3874 1.48981C62.0845 1.79646 62.6181 2.23833 62.9882 2.81784C63.3584 3.39734 63.5434 4.09516 63.5434 4.91371C63.5434 5.73225 63.3632 6.39144 63.005 6.96128C62.6445 7.53113 62.1325 7.96817 61.4667 8.27482L64.1179 12.8915L64.1155 12.8891ZM57.0081 6.61117H58.6449C59.3155 6.61117 59.8275 6.47595 60.1784 6.20793C60.5294 5.93991 60.7048 5.54875 60.7048 5.03685C60.7048 4.52496 60.5294 4.12655 60.1784 3.85853C59.8275 3.59051 59.3155 3.45529 58.6449 3.45529H57.0081V6.60875V6.61117Z" fill="#9E9E9E" />
	<path d="M66.2018 12.8891V1.03104H73.9461V3.4577H68.9731V5.72742H73.6313V8.15409H68.9731V10.4624H74.0255V12.8891H66.2042H66.2018Z" fill="#9E9E9E" />
	<path d="M89.5166 12.8891H86.7476V5.01512L84.1277 10.8971H82.0414L79.4287 5.03927V12.8891H76.6598V1.03104H80.1618L83.0894 7.78225L86.0097 1.03104H89.519V12.8891H89.5166Z" fill="#9E9E9E" />
	<path d="M5.21578 17.6145C7.2468 18.887 9.59511 19.5196 11.9891 19.5123C12.0011 19.5123 12.0155 19.5123 12.0275 19.5123C13.9792 19.5123 16.4886 19.9252 20.6011 21.7531C21.4352 22.1249 22.2259 22.2795 22.9638 22.2795C26.9706 22.2795 29.4727 17.6724 29.4727 17.6724C14.1355 17.6724 18.8417 5.13343 9.77537 5.13343C2.50934 5.13585 0 0 0 0V14.3596C1.81471 15.4872 3.65825 16.6414 5.21578 17.6145Z" fill="#9E9E9E" />
	<path d="M7.75636 19.7949C7.75636 19.7949 7.77319 19.7949 7.7828 19.7949C5.50901 18.3654 2.66317 16.5834 0 14.927V40.3334C2.26658 39.312 4.14137 38.9354 5.79985 38.9354C10.5205 38.9354 13.5129 41.9971 18.9474 41.9971C24.382 41.9971 29.4727 37.9188 29.4727 37.9188C19.6108 26.8745 7.75636 19.7973 7.75636 19.7973V19.7949Z" fill="#FF6464" />
	<path d="M19.2863 8.6346C20.2381 10.32 21.0914 11.8243 22.6104 12.8915H22.7739C24.1944 12.8915 25.4274 12.6477 26.473 12.1599C27.5162 11.6722 28.3286 10.984 28.9054 10.093C29.4823 9.20203 29.7707 8.15892 29.7707 6.96128C29.7707 5.76364 29.4823 4.71571 28.9054 3.82714C28.3286 2.93857 27.5186 2.25041 26.473 1.76266C25.4298 1.27491 24.1968 1.03104 22.7739 1.03104H18.7527V7.70015C18.9402 8.01888 19.118 8.33277 19.2887 8.63218L19.2863 8.6346ZM21.5216 3.46012H22.8676C23.7377 3.46012 24.4756 3.59534 25.0789 3.86819C25.6822 4.13862 26.1437 4.53703 26.461 5.05858C26.7783 5.58014 26.9369 6.21517 26.9369 6.9637C26.9369 7.71222 26.7783 8.34726 26.461 8.86881C26.1437 9.39037 25.6822 9.78636 25.0789 10.0592C24.4756 10.3296 23.7377 10.4673 22.8676 10.4673H21.5216V3.45771V3.46012Z" fill="#9E9E9E" />
	<path d="M34.0323 19.7949L29.2756 28.1445L27.1364 24.3416C25.9443 24.9814 24.5502 25.4185 22.9638 25.4185C22.536 25.4185 22.1057 25.3847 21.6803 25.3195L22.7908 27.0193C25.7279 29.5523 28.8406 32.5053 31.7994 35.8181L31.9821 36.021V32.9206L40.5388 19.79H34.0347L34.0323 19.7949Z" fill="#FF6464" />
	<path d="M31.3739 40.4058C31.0831 40.6304 29.7155 41.6542 27.7229 42.6925H31.9796V39.9374L31.3739 40.4034V40.4058Z" fill="#FF6464" />
	<path d="M15.5729 32.9665C15.9094 32.5802 16.2435 32.1963 16.5776 31.8148C16.1137 31.892 15.6474 31.9789 15.1811 32.0659C14.9648 31.5661 14.7461 31.0662 14.5298 30.564C14.4529 31.1194 14.3759 31.6747 14.299 32.2301C13.8447 32.3146 13.3905 32.3967 12.9386 32.4691C13.3472 32.7226 13.7558 32.9689 14.1644 33.2128C14.0899 33.7585 14.013 34.3042 13.9385 34.8499C14.2774 34.4612 14.6139 34.07 14.9528 33.6812C15.371 33.9299 15.7892 34.1786 16.2075 34.4346C15.996 33.942 15.7844 33.4543 15.5729 32.9641V32.9665Z" fill="white" />
	<path d="M13.2053 34.7171C12.4385 35.9123 11.4795 36.3397 10.1311 35.9871C8.10729 35.4801 6.73244 32.4642 6.97279 30.0569C7.21315 27.6495 8.97738 26.7875 11.0012 27.2946C12.5251 27.6954 13.5995 28.7023 13.9937 30.3587C13.5875 29.2021 12.8135 28.5936 11.6934 28.3522C10.0398 28.0093 8.57839 28.9607 8.3837 30.9117C8.1866 32.8723 9.33071 35.0889 10.9844 35.4318C11.9602 35.6419 12.5707 35.4946 13.2053 34.7171Z" fill="white" />
	<path d="M14.198 13.9201C14.4191 13.6666 14.6403 13.4131 14.8614 13.1619C14.5537 13.2126 14.2485 13.2706 13.9408 13.3261C13.7966 12.9953 13.6548 12.667 13.5106 12.3362C13.4601 12.7032 13.4096 13.0702 13.3591 13.4348C13.0587 13.4903 12.7607 13.5434 12.4602 13.5942C12.7294 13.7608 12.9986 13.9225 13.2678 14.0843C13.2173 14.4441 13.1693 14.8039 13.1188 15.1636C13.3423 14.9077 13.5659 14.6493 13.787 14.3934C14.0634 14.5576 14.3398 14.7218 14.6138 14.8908C14.4744 14.5672 14.335 14.2437 14.1956 13.9225L14.198 13.9201Z" fill="white" />
	<path d="M12.638 15.0767C12.1333 15.8639 11.4987 16.1464 10.6118 15.9146C9.27782 15.5814 8.36927 13.5917 8.53031 12.0054C8.69135 10.419 9.85228 9.84912 11.1863 10.1823C12.191 10.4455 12.9 11.1095 13.1596 12.2034C12.8928 11.4403 12.3833 11.0395 11.643 10.8802C10.5517 10.6532 9.58789 11.281 9.4605 12.568C9.3307 13.8598 10.0854 15.323 11.1767 15.5476C11.8208 15.6852 12.2222 15.5886 12.6404 15.0767H12.638Z" fill="white" />
</svg>
